<svg width="96" height="17" viewBox="0 0 96 17" fill="none" xmlns="http://www.w3.org/2000/svg">
<path d="M12.8631 16.0758C12.2939 16.4812 8.64148 13.9111 7.94196 13.9055C7.24244 13.8999 3.54891 16.4109 2.98632 15.9963C2.42373 15.5818 3.74635 11.3238 3.53557 10.6586C3.3248 9.99355 -0.211535 7.26667 0.00998294 6.60503C0.23155 5.94339 4.70138 5.88193 5.27061 5.47648C5.83984 5.07108 7.34783 0.874777 8.0474 0.880377C8.74687 0.886026 10.1867 5.10604 10.7493 5.5206C11.3119 5.93511 15.7802 6.06854 15.991 6.73364C16.2018 7.39874 12.6219 10.0683 12.4003 10.73C12.1788 11.3916 13.4324 15.6703 12.8631 16.0758Z" fill="#FFC804"/>
<path d="M32.8631 16.0758C32.2939 16.4812 28.6415 13.9111 27.942 13.9055C27.2424 13.8999 23.5489 16.4109 22.9863 15.9963C22.4237 15.5818 23.7463 11.3238 23.5356 10.6586C23.3248 9.99355 19.7885 7.26667 20.01 6.60503C20.2316 5.94339 24.7014 5.88193 25.2706 5.47648C25.8398 5.07108 27.3478 0.874777 28.0474 0.880377C28.7469 0.886026 30.1867 5.10604 30.7493 5.5206C31.3119 5.93511 35.7802 6.06854 35.991 6.73364C36.2018 7.39874 32.6219 10.0683 32.4003 10.73C32.1788 11.3916 33.4324 15.6703 32.8631 16.0758Z" fill="#FFC804"/>
<path d="M52.8631 16.0758C52.2939 16.4812 48.6415 13.9111 47.942 13.9055C47.2424 13.8999 43.5489 16.4109 42.9863 15.9963C42.4237 15.5818 43.7463 11.3238 43.5356 10.6586C43.3248 9.99355 39.7885 7.26667 40.01 6.60503C40.2316 5.94339 44.7014 5.88193 45.2706 5.47648C45.8398 5.07108 47.3478 0.874777 48.0474 0.880377C48.7469 0.886026 50.1867 5.10604 50.7493 5.5206C51.3119 5.93511 55.7802 6.06854 55.991 6.73364C56.2018 7.39874 52.6219 10.0683 52.4003 10.73C52.1788 11.3916 53.4324 15.6703 52.8631 16.0758Z" fill="#FFC804"/>
<path d="M72.8631 16.0758C72.2939 16.4812 68.6415 13.9111 67.942 13.9055C67.2424 13.8999 63.5489 16.4109 62.9863 15.9963C62.4237 15.5818 63.7463 11.3238 63.5356 10.6586C63.3248 9.99355 59.7885 7.26667 60.01 6.60503C60.2316 5.94339 64.7014 5.88193 65.2706 5.47648C65.8398 5.07108 67.3478 0.874777 68.0474 0.880377C68.7469 0.886026 70.1867 5.10604 70.7493 5.5206C71.3119 5.93511 75.7802 6.06854 75.991 6.73364C76.2018 7.39874 72.6219 10.0683 72.4003 10.73C72.1788 11.3916 73.4324 15.6703 72.8631 16.0758Z" fill="#FFC804"/>
<path d="M92.8631 16.0758C92.2939 16.4812 88.6415 13.9111 87.942 13.9055C87.2424 13.8999 83.5489 16.4109 82.9863 15.9963C82.4237 15.5818 83.7463 11.3238 83.5356 10.6586C83.3248 9.99355 79.7885 7.26667 80.01 6.60503C80.2316 5.94339 84.7014 5.88193 85.2706 5.47648C85.8398 5.07108 87.3478 0.874777 88.0474 0.880377C88.7469 0.886026 90.1867 5.10604 90.7493 5.5206C91.3119 5.93511 95.7802 6.06854 95.991 6.73364C96.2018 7.39874 92.6219 10.0683 92.4003 10.73C92.1788 11.3916 93.4324 15.6703 92.8631 16.0758Z" fill="#E2E2E2"/>
</svg>
