<svg width="256" height="256" viewBox="0 0 256 256" fill="none" xmlns="http://www.w3.org/2000/svg">
<path fill-rule="evenodd" clip-rule="evenodd" d="M240.277 54.4097L128.425 0L16.5742 54.4097L128.425 110.815L184.472 82.5452L134.434 69.0137C132.449 69.3546 130.439 69.5245 128.425 69.5215C123.664 69.5215 118.525 68.5955 114.287 66.3254C110.128 64.1108 106.629 60.3806 106.629 55.399C106.629 50.4173 110.12 46.6872 114.287 44.4726C118.525 42.2163 123.664 41.2795 128.429 41.2795C133.63 41.2795 139.495 42.4216 143.97 45.292L218.418 65.4333L240.277 54.4097ZM170.355 138.868C179.858 140.474 189.251 142.672 198.479 145.451C197.533 140.78 197.781 135.946 199.201 131.397C200.62 126.848 203.165 122.73 206.599 119.426V97.0642L193.134 93.4236L173.743 103.202C171.707 114.987 170.574 126.911 170.355 138.868ZM101.624 136.787C119.446 134.906 137.417 134.906 155.239 136.787V136.79C155.458 128.353 156.101 119.933 157.167 111.562L128.431 126.053L99.6966 111.562C100.762 119.932 101.405 128.351 101.624 136.787ZM17.6329 162.72C37.3652 151.513 60.8107 143.231 86.5077 138.868H86.5278C86.3063 126.91 85.1712 114.987 83.1326 103.202L36.0627 79.4678C22.9703 98.2742 15.9672 120.647 16.0001 143.562C16.0003 149.982 16.5465 156.392 17.6329 162.72ZM190.596 237.257C211.566 223.315 227.591 202.521 235.462 178.068C217.171 167.009 195.04 158.75 170.545 154.29C171.911 185.198 179.141 213.662 190.596 237.257ZM128.432 256C145.399 256 162.146 252.166 177.424 244.785V244.78C164.468 218.438 156.427 186.543 155.29 152.045C137.44 150.043 119.423 150.043 101.573 152.045C100.436 186.548 92.403 218.443 79.4395 244.785C94.7169 252.166 111.465 256 128.432 256ZM21.4016 178.068C29.2754 202.521 45.2976 223.315 66.2677 237.257C77.7203 213.662 84.9506 185.198 86.3164 154.29C61.823 158.75 39.6909 167.009 21.4016 178.068ZM128.427 46.6592C133.876 46.6592 138.705 48.0713 141.699 50.2458L232.169 74.7113V121.743C228.284 120.463 224.091 120.463 220.207 121.743V86.6516L134.64 63.5118C132.599 63.9475 130.518 64.1643 128.431 64.1584C119.357 64.1584 112 60.2416 112 55.4096C112 50.5776 119.357 46.6607 128.431 46.6607L128.427 46.6592ZM240.852 139.813C240.852 147.911 234.286 154.477 226.188 154.477C218.089 154.477 211.523 147.911 211.523 139.813C211.523 131.714 218.089 125.148 226.188 125.148C234.286 125.148 240.852 131.714 240.852 139.813Z" fill="#FF510E"/>
</svg>
