<svg width="32" height="32" viewBox="0 0 32 32" fill="none" xmlns="http://www.w3.org/2000/svg">
<path fill-rule="evenodd" clip-rule="evenodd" d="M30.0346 6.80121L16.0531 0L2.07178 6.80121L16.0531 13.8519L23.059 10.3181L16.8043 8.62672C16.5561 8.66933 16.3048 8.69056 16.0531 8.69018C15.458 8.69018 14.8156 8.57444 14.2858 8.29067C13.7659 8.01384 13.3286 7.54758 13.3286 6.92487C13.3286 6.30216 13.765 5.8359 14.2858 5.55907C14.8156 5.27703 15.458 5.15994 16.0537 5.15994C16.7038 5.15994 17.4368 5.30269 17.9963 5.66151L27.3022 8.17916L30.0346 6.80121ZM21.2944 17.3586C22.4822 17.5592 23.6563 17.834 24.8098 18.1813C24.6916 17.5975 24.7226 16.9932 24.9001 16.4246C25.0775 15.8559 25.3956 15.3413 25.8249 14.9283V12.133L24.1418 11.678L21.7179 12.9002C21.4634 14.3734 21.3218 15.8638 21.2944 17.3586ZM12.703 17.0983C14.9308 16.8632 17.1771 16.8632 19.4049 17.0983V17.0987C19.4322 16.0442 19.5126 14.9917 19.6458 13.9452L16.0539 15.7566L12.4621 13.9452C12.5953 14.9915 12.6757 16.0439 12.703 17.0983ZM2.20411 20.34C4.67065 18.9391 7.60133 17.9039 10.8135 17.3586H10.816C10.7883 15.8638 10.6464 14.3734 10.3916 12.9002L4.50784 9.93347C2.87128 12.2843 1.9959 15.0808 2.00001 17.9452C2.00004 18.7478 2.06832 19.5489 2.20411 20.34ZM23.8244 29.6571C26.4457 27.9144 28.4489 25.3151 29.4327 22.2585C27.1463 20.8761 24.38 19.8438 21.3182 19.2863C21.4889 23.1497 22.3927 26.7077 23.8244 29.6571ZM16.0539 32C18.1748 32 20.2683 31.5208 22.178 30.5981V30.5975C20.5585 27.3048 19.5534 23.3179 19.4112 19.0056C17.18 18.7553 14.9279 18.7553 12.6966 19.0056C12.5545 23.3185 11.5504 27.3054 9.92994 30.5981C11.8396 31.5208 13.9331 32 16.0539 32ZM2.6752 22.2585C3.65942 25.3151 5.66221 27.9144 8.28346 29.6571C9.71504 26.7077 10.6188 23.1497 10.7895 19.2863C7.72788 19.8438 4.96137 20.8761 2.6752 22.2585ZM16.0533 5.8324C16.7345 5.8324 17.3381 6.00891 17.7123 6.28072L29.0211 9.33891V15.2178C28.5355 15.0578 28.0114 15.0578 27.5258 15.2178V10.8315L16.83 7.93897C16.5749 7.99344 16.3147 8.02054 16.0539 8.0198C14.9196 8.0198 14 7.53019 14 6.9262C14 6.3222 14.9196 5.83259 16.0539 5.83259L16.0533 5.8324ZM30.1065 17.4766C30.1065 18.4889 29.2858 19.3096 28.2735 19.3096C27.2611 19.3096 26.4404 18.4889 26.4404 17.4766C26.4404 16.4642 27.2611 15.6436 28.2735 15.6436C29.2858 15.6436 30.1065 16.4642 30.1065 17.4766Z" fill="#FF510E"/>
</svg>
