<svg width="135" height="32" viewBox="0 0 135 32" fill="none" xmlns="http://www.w3.org/2000/svg">
<path fill-rule="evenodd" clip-rule="evenodd" d="M28.0348 6.80121L14.0533 0L0.0719643 6.80121L14.0533 13.8519L21.0592 10.3181L14.8045 8.62672C14.5563 8.66933 14.305 8.69057 14.0533 8.69018C13.4581 8.69018 12.8158 8.57444 12.286 8.29067C11.7661 8.01384 11.3288 7.54758 11.3288 6.92487C11.3288 6.30216 11.7652 5.83589 12.286 5.55907C12.8158 5.27704 13.4581 5.15994 14.0538 5.15994C14.704 5.15994 15.437 5.30269 15.9964 5.66151L25.3024 8.17917L28.0348 6.80121ZM19.2944 17.3586C20.4822 17.5592 21.6563 17.834 22.8098 18.1813C22.6916 17.5975 22.7226 16.9932 22.9001 16.4246C23.0775 15.8559 23.3956 15.3413 23.8249 14.9283V12.133L22.1418 11.678L19.7179 12.9002C19.4634 14.3734 19.3218 15.8638 19.2944 17.3586ZM10.703 17.0983C12.9308 16.8632 15.1771 16.8632 17.4049 17.0983V17.0987C17.4322 16.0442 17.5126 14.9917 17.6458 13.9452L14.0539 15.7566L10.4621 13.9452C10.5953 14.9916 10.6757 16.0439 10.703 17.0983ZM0.204112 20.34C2.67065 18.9391 5.60133 17.9039 8.81347 17.3586H8.81598C8.78829 15.8638 8.64641 14.3734 8.39157 12.9002L2.50784 9.93348C0.871282 12.2843 -0.00409666 15.0808 1.44141e-05 17.9452C3.81065e-05 18.7478 0.068316 19.549 0.204112 20.34ZM21.8244 29.6571C24.4457 27.9144 26.4489 25.3151 27.4327 22.2585C25.1463 20.8761 22.38 19.8438 19.3182 19.2863C19.4889 23.1497 20.3927 26.7077 21.8244 29.6571ZM14.0539 32C16.1748 32 18.2683 31.5208 20.178 30.5981V30.5975C18.5585 27.3048 17.5534 23.3179 17.4112 19.0056C15.18 18.7554 12.9279 18.7554 10.6966 19.0056C10.5545 23.3185 9.55038 27.3054 7.92994 30.5981C9.83961 31.5208 11.9331 32 14.0539 32ZM0.675197 22.2585C1.65942 25.3151 3.66221 27.9144 6.28346 29.6571C7.71504 26.7077 8.61882 23.1497 8.78955 19.2863C5.72788 19.8438 2.96137 20.8761 0.675197 22.2585ZM14.0533 5.83242C14.7344 5.83242 15.338 6.00893 15.7123 6.28074L27.021 9.33894V15.2178C26.5355 15.0579 26.0114 15.0579 25.5258 15.2178V10.8315L14.8299 7.93899C14.5748 7.99346 14.3147 8.02056 14.0539 8.01982C12.9195 8.01982 11.9999 7.53022 11.9999 6.92622C11.9999 6.32222 12.9195 5.83261 14.0539 5.83261L14.0533 5.83242ZM28.1065 17.4766C28.1065 18.489 27.2859 19.3096 26.2735 19.3096C25.2612 19.3096 24.4405 18.489 24.4405 17.4766C24.4405 16.4643 25.2612 15.6436 26.2735 15.6436C27.2859 15.6436 28.1065 16.4643 28.1065 17.4766Z" fill="#FF510E"/>
<path d="M40.1066 25.9521V3.64808H44.1706V22.4321H50.8266V25.9521H40.1066Z" fill="#151515"/>
<path d="M59.3068 26.3681C57.5148 26.3681 56.0695 25.9947 54.9708 25.2481C53.8722 24.4907 53.0722 23.4934 52.5708 22.2561C52.0695 21.0081 51.8188 19.6481 51.8188 18.1761C51.8188 16.6294 52.1015 15.2107 52.6668 13.9201C53.2428 12.6187 54.0802 11.5787 55.1788 10.8001C56.2882 10.0214 57.6428 9.63208 59.2428 9.63208C61.6322 9.63208 63.3015 10.3254 64.2508 11.7121C65.2002 13.0881 65.6748 15.0401 65.6748 17.5681C65.6748 17.7921 65.6695 18.0747 65.6588 18.4161C65.6482 18.7574 65.6322 19.0507 65.6108 19.2961H56.0108C56.0748 20.5547 56.4268 21.5414 57.0668 22.2561C57.7175 22.9707 58.6882 23.3281 59.9788 23.3281C60.6402 23.3281 61.3495 23.1841 62.1068 22.8961C62.8642 22.5974 63.4242 22.2401 63.7868 21.8241L65.0668 24.8641C64.6402 25.1521 63.9628 25.4774 63.0348 25.8401C62.1175 26.1921 60.8748 26.3681 59.3068 26.3681ZM55.9788 16.8001H61.6108C61.6108 15.6801 61.5095 14.8267 61.3068 14.2401C61.1148 13.6427 60.8482 13.2321 60.5068 13.0081C60.1655 12.7841 59.7762 12.6721 59.3388 12.6721C58.2508 12.6721 57.4348 13.0774 56.8908 13.8881C56.3468 14.6881 56.0428 15.6587 55.9788 16.8001Z" fill="#151515"/>
<path d="M72.2303 26.4001C71.249 26.4001 70.433 26.1814 69.7823 25.7441C69.1423 25.3067 68.6623 24.7254 68.3423 24.0001C68.033 23.2747 67.8783 22.4747 67.8783 21.6001C67.8783 21.1094 68.001 20.5707 68.2463 19.9841C68.5023 19.3974 68.9503 18.8374 69.5903 18.3041C70.2303 17.7707 71.1317 17.3334 72.2943 16.9921C73.457 16.6507 74.9503 16.4801 76.7743 16.4801V15.7441C76.7743 14.9547 76.5823 14.2987 76.1983 13.7761C75.825 13.2534 75.0677 12.9921 73.9263 12.9921C73.0943 12.9921 72.2783 13.1361 71.4783 13.4241C70.689 13.7014 70.1077 14.0481 69.7343 14.4641L68.4543 11.3921C69.0943 10.9547 69.9476 10.5547 71.0143 10.1921C72.0917 9.81875 73.2863 9.63208 74.5983 9.63208C76.177 9.63208 77.4036 9.87208 78.2783 10.3521C79.153 10.8321 79.7663 11.5147 80.1183 12.4001C80.4703 13.2747 80.6463 14.3041 80.6463 15.4881V25.9521H77.2223L76.9343 23.6801C75.825 25.4934 74.257 26.4001 72.2303 26.4001ZM73.9263 23.3281C74.4063 23.3281 74.9183 23.1361 75.4623 22.7521C76.017 22.3574 76.4543 21.8561 76.7743 21.2481V18.9761C76.6677 18.9547 76.5503 18.9441 76.4223 18.9441C76.305 18.9441 76.1663 18.9441 76.0063 18.9441C75.4197 18.9441 74.801 19.0134 74.1503 19.1521C73.5103 19.2801 72.9663 19.5094 72.5183 19.8401C72.0703 20.1707 71.8463 20.6294 71.8463 21.2161C71.8463 21.9841 72.017 22.5281 72.3583 22.8481C72.6997 23.1681 73.2223 23.3281 73.9263 23.3281Z" fill="#151515"/>
<path d="M84.2141 25.9521V10.0161H87.8301L88.0221 12.8321C88.1927 12.4161 88.4541 11.9734 88.8061 11.5041C89.1687 11.0347 89.6647 10.6401 90.2941 10.3201C90.9341 9.98941 91.7554 9.82408 92.7581 9.82408C93.0674 9.82408 93.3394 9.84541 93.5741 9.88808C93.8087 9.93075 94.0274 9.99475 94.2301 10.0801L93.3341 14.2721C92.9927 13.9307 92.4701 13.7601 91.7661 13.7601C90.9447 13.7601 90.2727 13.9307 89.7501 14.2721C89.2274 14.6027 88.8381 14.9761 88.5821 15.3921C88.3367 15.8081 88.2141 16.1281 88.2141 16.3521V25.9521H84.2141Z" fill="#151515"/>
<path d="M96.1866 25.9521V10.0161H99.8986L99.9786 12.1121C100.395 11.4721 100.976 10.9014 101.723 10.4001C102.469 9.88808 103.451 9.63208 104.667 9.63208C106.288 9.63208 107.493 10.1441 108.283 11.1681C109.072 12.1921 109.467 13.6107 109.467 15.4241V25.9521H105.371V15.7761C105.371 14.8907 105.184 14.1761 104.811 13.6321C104.437 13.0774 103.867 12.8001 103.099 12.8001C102.352 12.8001 101.696 13.0774 101.131 13.6321C100.565 14.1761 100.283 14.8907 100.283 15.7761V25.9521H96.1866Z" fill="#151515"/>
<path d="M113.126 25.9521V1.63208H117.03V25.9521H113.126Z" fill="#151515"/>
<path d="M122.581 32.0001L125.173 24.8641L119.189 10.0161H123.637L126.005 17.1201L127.029 20.8001L128.053 17.1201L130.453 10.0161H134.645L126.517 32.0001H122.581Z" fill="#151515"/>
</svg>
