<svg width="16" height="16" viewBox="0 0 16 16" fill="none" xmlns="http://www.w3.org/2000/svg">
<path d="M3.61369 5.25879H0.270508V15.92H3.61369V5.25879Z" fill="#151515"/>
<path d="M12.6571 5.03463C12.5339 5.01922 12.4029 5.01152 12.272 5.00382C10.4001 4.92678 9.34477 6.03604 8.97502 6.51364C8.87488 6.64459 8.82866 6.72163 8.82866 6.72163V5.29654H5.63184V15.9577H8.82866H8.97502C8.97502 14.8716 8.97502 13.7931 8.97502 12.707C8.97502 12.1216 8.97502 11.5361 8.97502 10.9507C8.97502 10.2266 8.9211 9.45626 9.28315 8.79378C9.59127 8.23915 10.1459 7.96184 10.7699 7.96184C12.6186 7.96184 12.6571 9.63343 12.6571 9.78749C12.6571 9.7952 12.6571 9.8029 12.6571 9.8029V16.004H16.0003V9.04799C16.0003 6.6677 14.7909 5.26572 12.6571 5.03463Z" fill="#151515"/>
<path d="M1.9412 3.8824C3.01329 3.8824 3.8824 3.0133 3.8824 1.9412C3.8824 0.869106 3.01329 0 1.9412 0C0.869102 0 0 0.869106 0 1.9412C0 3.0133 0.869102 3.8824 1.9412 3.8824Z" fill="#151515"/>
</svg>
