<svg width="16" height="16" viewBox="0 0 16 16" fill="none" xmlns="http://www.w3.org/2000/svg">
<path d="M8 1.44299C10.136 1.44299 10.389 1.45099 11.2328 1.48946C11.7401 1.49567 12.2426 1.58883 12.7185 1.76489C13.0636 1.89798 13.3769 2.10184 13.6385 2.36337C13.9 2.6249 14.1039 2.93829 14.237 3.28337C14.413 3.75922 14.5062 4.26174 14.5124 4.76908C14.5505 5.61289 14.5589 5.86584 14.5589 8.00184C14.5589 10.1378 14.5509 10.3908 14.5124 11.2346C14.5062 11.7419 14.413 12.2445 14.237 12.7203C14.1039 13.0654 13.9 13.3788 13.6385 13.6403C13.3769 13.9018 13.0636 14.1057 12.7185 14.2388C12.2426 14.4149 11.7401 14.508 11.2328 14.5142C10.3893 14.5523 10.1364 14.5607 8 14.5607C5.86362 14.5607 5.61067 14.5527 4.76724 14.5142C4.2599 14.508 3.75738 14.4149 3.28152 14.2388C2.93644 14.1057 2.62305 13.9018 2.36152 13.6403C2.1 13.3788 1.89613 13.0654 1.76305 12.7203C1.58699 12.2445 1.49383 11.7419 1.48762 11.2346C1.44952 10.3908 1.44114 10.1378 1.44114 8.00184C1.44114 5.86584 1.44914 5.61289 1.48762 4.76908C1.49383 4.26174 1.58699 3.75922 1.76305 3.28337C1.89613 2.93829 2.1 2.6249 2.36152 2.36337C2.62305 2.10184 2.93644 1.89798 3.28152 1.76489C3.75738 1.58883 4.2599 1.49567 4.76724 1.48946C5.61105 1.45137 5.864 1.44299 8 1.44299ZM8 0.00146484C5.82857 0.00146484 5.55505 0.0106077 4.70171 0.0494648C4.03773 0.0626716 3.3808 0.188391 2.75886 0.421274C2.22533 0.62229 1.74209 0.937299 1.34286 1.34432C0.935467 1.7437 0.620188 2.22722 0.419048 2.76108C0.186164 3.38302 0.060445 4.03996 0.0472381 4.70394C0.00914288 5.55651 0 5.83003 0 8.00146C0 10.1729 0.00914283 10.4464 0.048 11.2997C0.0612068 11.9637 0.186926 12.6207 0.41981 13.2426C0.620727 13.7764 0.935742 14.2599 1.34286 14.6594C1.74231 15.0665 2.22582 15.3815 2.75962 15.5824C3.38156 15.8153 4.03849 15.941 4.70248 15.9542C5.55581 15.9923 5.82819 16.0022 8.00076 16.0022C10.1733 16.0022 10.4457 15.9931 11.299 15.9542C11.963 15.941 12.62 15.8153 13.2419 15.5824C13.7732 15.3765 14.2556 15.0619 14.6584 14.6589C15.0611 14.2559 15.3754 13.7732 15.581 13.2418C15.8138 12.6199 15.9396 11.963 15.9528 11.299C15.9909 10.4464 16 10.1729 16 8.00146C16 5.83003 15.9909 5.55651 15.952 4.70318C15.9388 4.0392 15.8131 3.38226 15.5802 2.76032C15.3793 2.22652 15.0643 1.74302 14.6571 1.34356C14.2577 0.936444 13.7742 0.62143 13.2404 0.420512C12.6184 0.187629 11.9615 0.0619098 11.2975 0.048703C10.445 0.0106077 10.1714 0.00146484 8 0.00146484Z" fill="#151515"/>
<path d="M7.99882 3.89453C7.18629 3.89453 6.39202 4.13547 5.71643 4.58689C5.04084 5.0383 4.51428 5.67991 4.20334 6.43059C3.89241 7.18126 3.81105 8.00728 3.96956 8.80419C4.12808 9.6011 4.51935 10.3331 5.09389 10.9077C5.66843 11.4822 6.40044 11.8735 7.19735 12.032C7.99426 12.1905 8.82028 12.1091 9.57095 11.7982C10.3216 11.4873 10.9632 10.9607 11.4147 10.2851C11.8661 9.60952 12.107 8.81525 12.107 8.00272C12.107 6.91316 11.6742 5.86823 10.9037 5.09779C10.1333 4.32736 9.08838 3.89453 7.99882 3.89453ZM7.99882 10.6694C7.4714 10.6694 6.95583 10.513 6.5173 10.22C6.07877 9.92696 5.73697 9.51048 5.53514 9.02321C5.3333 8.53594 5.2805 7.99976 5.38339 7.48248C5.48628 6.9652 5.74026 6.49004 6.1132 6.1171C6.48614 5.74416 6.96129 5.49019 7.47858 5.38729C7.99586 5.2844 8.53204 5.33721 9.01931 5.53904C9.50658 5.74088 9.92305 6.08267 10.2161 6.5212C10.5091 6.95973 10.6655 7.4753 10.6655 8.00272C10.6655 8.70997 10.3845 9.38824 9.88444 9.88834C9.38434 10.3884 8.70606 10.6694 7.99882 10.6694Z" fill="#151515"/>
<path d="M12.2705 4.68904C12.8007 4.68904 13.2305 4.25924 13.2305 3.72904C13.2305 3.19885 12.8007 2.76904 12.2705 2.76904C11.7404 2.76904 11.3105 3.19885 11.3105 3.72904C11.3105 4.25924 11.7404 4.68904 12.2705 4.68904Z" fill="#151515"/>
</svg>
