<svg width="40" height="40" viewBox="0 0 40 40" fill="none" xmlns="http://www.w3.org/2000/svg">
<path d="M34.1666 28.2144V16.6668C34.1666 10.3814 34.1666 7.23874 32.214 5.28612C30.2613 3.3335 27.1186 3.3335 20.8333 3.3335H19.1666C12.8812 3.3335 9.7385 3.3335 7.78587 5.28612C5.83325 7.23874 5.83325 10.3814 5.83325 16.6668V32.5002" stroke="#FF510E" stroke-width="1.5" stroke-linecap="round"/>
<path d="M34.1666 28.3335H9.99992C7.69873 28.3335 5.83325 30.199 5.83325 32.5002C5.83325 34.8013 7.69873 36.6668 9.99992 36.6668H34.1666" stroke="#FF510E" stroke-width="1.5" stroke-linecap="round"/>
<path d="M34.1667 28.3335C31.8655 28.3335 30 30.199 30 32.5002C30 34.8013 31.8655 36.6668 34.1667 36.6668" stroke="#FF510E" stroke-width="1.5" stroke-linecap="round"/>
<path d="M24.9347 16.3975C24.7243 17.2928 23.73 17.9255 21.7414 19.1909C19.8189 20.4141 18.8577 21.0257 18.0831 20.7799C17.7628 20.6782 17.471 20.4852 17.2357 20.2193C16.6665 19.5761 16.6665 18.3286 16.6665 15.8335C16.6665 13.3384 16.6665 12.0909 17.2357 11.4477C17.471 11.1818 17.7628 10.9888 18.0831 10.8871C18.8577 10.6413 19.8189 11.2529 21.7414 12.4761C23.73 13.7415 24.7243 14.3742 24.9347 15.2695C25.0215 15.6391 25.0215 16.0279 24.9347 16.3975Z" stroke="#FF510E" stroke-width="1.5" stroke-linejoin="round"/>
</svg>
