<svg width="40" height="40" viewBox="0 0 40 40" fill="none" xmlns="http://www.w3.org/2000/svg">
<path d="M21.6666 30.0002H35M28.3333 36.6668L28.3333 23.3335" stroke="#FF510E" stroke-width="2" stroke-linecap="round"/>
<path d="M11.6666 12.5002V11.6668C11.6666 7.06446 15.3976 3.3335 20 3.3335C24.6023 3.3335 28.3333 7.06446 28.3333 11.6668V12.5002" stroke="#FF510E" stroke-width="2"/>
<path d="M16.6667 36.6667C12.8666 36.6665 10.9514 36.6528 9.61348 35.4587C8.26005 34.2508 7.91829 32.2106 7.23476 28.1302L5.29644 16.5593C4.98115 14.6772 4.82351 13.7361 5.30894 13.1181C5.79437 12.5 6.69113 12.5 8.48465 12.5H31.5154C33.3089 12.5 34.2056 12.5 34.6911 13.1181C35.1765 13.7361 35.0188 14.6772 34.7036 16.5593L34.1272 20" stroke="#FF510E" stroke-width="2" stroke-linecap="round"/>
<path d="M7.5 29.167H16.6667" stroke="#FF510E" stroke-width="2" stroke-linecap="round"/>
</svg>
