<svg width="139" height="32" viewBox="0 0 139 32" fill="none" xmlns="http://www.w3.org/2000/svg">
<path d="M9.53523 4.36379L9.53523 31.2733C9.53509 31.5309 9.38758 31.7691 9.14742 31.8997C8.90726 32.0304 8.61026 32.0339 8.36656 31.909L1.28371 28.2726C1.03372 28.1444 0.878565 27.9011 0.878418 27.6369L0.878418 0.727367C0.878561 0.469839 1.02606 0.231581 1.26623 0.100956C1.50639 -0.0296669 1.80339 -0.0331802 2.04709 0.0917225L9.12994 3.72815C9.37993 3.85628 9.53508 4.09961 9.53523 4.36379Z" fill="#B9B9B9"/>
<path d="M21.207 4.36379L21.207 31.2733C21.2068 31.5309 21.0593 31.7691 20.8192 31.8997C20.579 32.0304 20.282 32.0339 20.0383 31.909L12.9555 28.2726C12.7055 28.1444 12.5503 27.9011 12.5502 27.6369L12.5502 0.727367C12.5503 0.469839 12.6978 0.231581 12.938 0.100956C13.1781 -0.0296669 13.4751 -0.0331802 13.7188 0.0917225L20.8017 3.72815C21.0517 3.85628 21.2068 4.09961 21.207 4.36379Z" fill="#B9B9B9"/>
<path d="M32.8789 4.36379V31.2733C32.8787 31.5309 32.7312 31.7691 32.4911 31.8997C32.2509 32.0304 31.9539 32.0339 31.7102 31.909L24.6273 28.2726C24.3773 28.1444 24.2222 27.9011 24.222 27.6369L24.222 0.727367C24.2222 0.469839 24.3697 0.231581 24.6099 0.100956C24.85 -0.0296669 25.147 -0.0331802 25.3907 0.0917225L32.4736 3.72815C32.7236 3.85628 32.8787 4.09961 32.8789 4.36379Z" fill="#B9B9B9"/>
<path d="M46.3618 25.7342V14.3778C46.3618 13.713 46.3086 12.3522 46.2023 10.2954L47.6251 15.2821L51.0028 25.7342H53.7953L57.1729 15.2821C57.2232 15.1255 57.278 14.9488 57.3373 14.752L57.4107 14.5063C57.7005 13.5273 58.0866 12.1237 58.5692 10.2954C58.4894 12.2458 58.4473 13.3495 58.4429 13.6066C58.4384 13.8637 58.4362 14.1208 58.4362 14.3778V25.7342H61.9202V6.99758H56.6942L53.2501 17.9948L52.4123 21.0001L51.774 18.4869L51.4815 17.4762L48.1304 6.99758H42.8778V25.7342H46.3618ZM68.9445 26.0001C71.0544 26.0001 72.6324 25.056 73.6785 23.1677H73.7583C73.8469 24.0631 74.1151 24.7413 74.5628 25.2022C75.0105 25.6632 75.7042 25.8937 76.6439 25.8937C76.9099 25.8937 77.1426 25.8849 77.342 25.8671C77.5415 25.8494 77.7299 25.8272 77.9072 25.8006C78.0845 25.774 78.2618 25.7386 78.4391 25.6943C78.6164 25.6499 78.8159 25.6012 79.0375 25.548V23.5267C78.7716 23.5799 78.4967 23.6065 78.213 23.6065C77.7875 23.6065 77.4839 23.4536 77.3022 23.1477C77.1204 22.8419 77.0295 22.2856 77.0295 21.4789V16.2395C77.0295 14.5906 76.5375 13.3185 75.5535 12.4231C74.5695 11.5277 73.1688 11.08 71.3514 11.08C69.5518 11.08 68.1311 11.4413 67.0895 12.1638C66.0478 12.8863 65.4073 13.9479 65.1679 15.3486L69.0642 15.5348C69.144 14.8078 69.3456 14.287 69.6692 13.9723C69.9928 13.6576 70.5003 13.5002 71.1918 13.5002C71.9365 13.5002 72.4728 13.7285 72.8008 14.185C73.1289 14.6416 73.2929 15.3397 73.2929 16.2794V17.0108L70.1945 17.064C68.3505 17.0817 66.9432 17.4807 65.9724 18.2608C65.0017 19.0409 64.5163 20.1757 64.5163 21.665C64.5163 23.0391 64.9064 24.1052 65.6865 24.8631C66.4667 25.6211 67.5527 26.0001 68.9445 26.0001ZM70.1413 23.3937C69.6182 23.3937 69.1994 23.2275 68.8847 22.8951C68.5699 22.5626 68.4126 22.0551 68.4126 21.3725C68.4126 20.8406 68.5079 20.415 68.6985 20.0959C68.8891 19.7767 69.1661 19.5396 69.5296 19.3845C69.8931 19.2293 70.5092 19.134 71.378 19.0986L73.2929 19.072V19.8033C73.2929 20.4328 73.1555 21.029 72.8806 21.5919C72.6058 22.1548 72.2268 22.5959 71.7437 22.915C71.2605 23.2342 70.7264 23.3937 70.1413 23.3937ZM84.4793 25.7342V18.673C84.4793 17.1925 84.7386 16.0755 85.2573 15.322C85.7759 14.5684 86.5006 14.1917 87.4314 14.1917C87.8924 14.1917 88.4243 14.2582 89.0272 14.3911V11.2662C88.7346 11.1332 88.349 11.0667 87.8703 11.0667C87.2852 11.0667 86.7976 11.1664 86.4075 11.3659C86.0174 11.5654 85.6806 11.8712 85.3969 12.2834C85.1132 12.6957 84.7896 13.4071 84.4261 14.4177H84.373C84.373 14.1518 84.3508 13.6132 84.3065 12.8021C84.2621 11.9909 84.2267 11.5055 84.2001 11.346H80.6363C80.6629 11.7538 80.6873 12.2214 80.7094 12.7489C80.7316 13.2763 80.7427 13.9346 80.7427 14.7236V25.7342H84.4793ZM95.0009 25.9735C96.18 25.9735 97.2305 25.8228 98.1525 25.5214V23.2076C97.6117 23.3317 97.195 23.3937 96.9025 23.3937C96.344 23.3937 95.9318 23.2275 95.6658 22.8951C95.3998 22.5626 95.2669 22.0462 95.2669 21.3459V13.8725H97.9929V11.346H95.2669V7.96832H92.9265L91.7563 11.346H89.7483V13.8725H91.5701V22.3565C91.5701 23.571 91.8671 24.4775 92.461 25.0759C93.055 25.6743 93.9016 25.9735 95.0009 25.9735ZM104.1 8.75289V6.00024H100.363V8.75289H104.1ZM104.1 25.7342V11.346H100.363V25.7342H104.1ZM111.643 25.7342V18.0214C111.643 16.8069 111.92 15.8118 112.474 15.0361C113.028 14.2604 113.757 13.8725 114.661 13.8725C116.372 13.8725 117.228 15.1358 117.228 17.6624V25.7342H120.951V16.5986C120.951 14.7901 120.543 13.416 119.728 12.4763C118.912 11.5366 117.742 11.0667 116.217 11.0667C115.162 11.0667 114.253 11.3149 113.491 11.8114C112.728 12.3078 112.095 13.1057 111.589 14.205H111.536C111.536 13.9302 111.514 13.4271 111.47 12.6957C111.425 11.9643 111.39 11.5144 111.363 11.346H107.799C107.826 11.736 107.85 12.1771 107.873 12.6691C107.895 13.1611 107.906 13.7927 107.906 14.564V25.7342H111.643ZM130.874 26.0001C133.161 26.0001 134.952 25.3374 136.246 24.0121C137.541 22.6867 138.188 20.8583 138.188 18.5268C138.188 16.1243 137.57 14.2825 136.333 13.0015C135.096 11.7205 133.303 11.08 130.954 11.08C128.658 11.08 126.871 11.7427 125.595 13.068C124.318 14.3934 123.68 16.2129 123.68 18.5268C123.68 20.8494 124.318 22.6757 125.595 24.0054C126.871 25.3352 128.631 26.0001 130.874 26.0001ZM130.834 23.4469C129.788 23.4469 128.988 23.0281 128.434 22.1903C127.88 21.3525 127.603 20.1314 127.603 18.5268C127.603 15.2732 128.738 13.6465 131.007 13.6465C132.071 13.6465 132.882 14.0321 133.441 14.8034C133.999 15.5746 134.278 16.8158 134.278 18.5268C134.278 21.8069 133.13 23.4469 130.834 23.4469Z" fill="#B9B9B9"/>
</svg>
