<svg width="132" height="32" viewBox="0 0 132 32" fill="none" xmlns="http://www.w3.org/2000/svg">
<path d="M0 30.1596C1.13844 30.0857 1.95901 29.9231 2.46169 29.6718C3.34879 29.2135 3.79234 28.3782 3.79234 27.1659V4.76809C3.79234 3.60015 3.37097 2.78703 2.52823 2.32873C2.04032 2.06261 1.19758 1.87781 0 1.77433V0.621173H13.8831C19.4866 0.621173 23.7594 2.11436 26.7016 5.10073C29.3777 7.82099 30.7157 11.4726 30.7157 16.0557C30.7157 20.1656 29.3703 23.6473 26.6794 26.5006C23.6485 29.7087 19.5383 31.3128 14.3488 31.3128H0V30.1596ZM11.1331 27.1215C11.1774 28.0529 11.3474 28.7256 11.6431 29.1395C11.9536 29.5535 12.6042 29.7605 13.5948 29.7605C16.2856 29.7605 18.496 28.8143 20.2258 26.9219C21.9556 25.0148 22.8206 21.3631 22.8206 15.967C22.8206 12.7588 22.3548 10.0016 21.4234 7.69532C19.9153 3.98454 17.3723 2.12914 13.7944 2.12914C12.6116 2.12914 11.8427 2.38047 11.4879 2.88313C11.2513 3.20838 11.1331 3.8367 11.1331 4.76809V27.1215Z" fill="#B9B9B9"/>
<path d="M33.1996 20.9122C33.1996 17.7485 34.168 15.1095 36.1048 12.9954C38.0565 10.8813 40.5034 9.82422 43.4456 9.82422C46.4469 9.82422 48.9012 10.9035 50.8085 13.0619C52.7305 15.2204 53.6915 17.8372 53.6915 20.9122C53.6915 23.943 52.7453 26.5523 50.8528 28.7404C48.9604 30.9136 46.4913 32.0002 43.4456 32.0002C40.4886 32.0002 38.0417 30.9432 36.1048 28.8291C34.168 26.7002 33.1996 24.0612 33.1996 20.9122ZM39.875 20.9122C39.875 24.0908 40.0376 26.3158 40.3629 27.5872C40.8804 29.5535 41.9079 30.5366 43.4456 30.5366C44.9093 30.5366 45.8703 29.7826 46.3286 28.2747C46.787 26.7667 47.0161 24.3126 47.0161 20.9122C47.0161 17.5267 46.7722 15.0799 46.2843 13.572C45.8112 12.0492 44.8723 11.2878 43.4677 11.2878C41.9301 11.2878 40.9026 12.271 40.3851 14.2373C40.045 15.553 39.875 17.778 39.875 20.9122Z" fill="#B9B9B9"/>
<path d="M55.7319 30.2262C56.6042 30.1227 57.2104 29.9157 57.5504 29.6052C57.8905 29.2948 58.0753 28.696 58.1048 27.809L58.1492 26.4784V14.1264C58.1492 13.1802 57.9866 12.5371 57.6613 12.1971C57.336 11.857 56.6929 11.6279 55.7319 11.5096V10.4008H64.3589V13.9711C65.3199 12.7145 66.2735 11.7166 67.2198 10.9774C68.166 10.2382 69.2601 9.86857 70.502 9.86857C71.4335 9.86857 72.2688 10.1716 73.0081 10.7778C73.7621 11.3692 74.1391 12.2414 74.1391 13.3946C74.1391 14.2816 73.873 15.0134 73.3407 15.59C72.8233 16.1666 72.1431 16.4549 71.3004 16.4549C70.3394 16.4549 69.504 16.0039 68.7944 15.1021C68.0995 14.2003 67.6116 13.7494 67.3306 13.7494C66.7245 13.7494 66.1109 14.1264 65.4899 14.8804C64.8837 15.6196 64.5806 16.684 64.5806 18.0737V26.6558C64.5806 28.1638 64.795 29.11 65.2238 29.4944C65.6673 29.864 66.5396 30.1079 67.8407 30.2262V31.3128H55.7319V30.2262Z" fill="#B9B9B9"/>
<path d="M75.7137 30.2262C76.6452 30.1522 77.3105 29.9453 77.7097 29.6052C78.1237 29.2652 78.3307 28.5556 78.3307 27.4763V12.7071H75.7137V10.7113H78.3307V9.02589C78.3307 6.91177 78.6633 5.17465 79.3286 3.81452C80.5854 1.27167 82.9066 0.000244141 86.2923 0.000244141C88.0961 0.000244141 89.6189 0.414197 90.8609 1.2421C92.1176 2.05522 92.746 3.13446 92.746 4.4798C92.746 5.32249 92.4798 6.00255 91.9476 6.51999C91.4301 7.03744 90.7352 7.29616 89.8629 7.29616C89.1384 7.29616 88.5175 7.05961 88 6.58652C87.4825 6.11343 87.2238 5.54425 87.2238 4.87897C87.2238 4.37631 87.3864 3.85148 87.7117 3.30447C88.0518 2.74268 88.2218 2.40265 88.2218 2.28437C88.2218 1.91477 88.0887 1.67823 87.8226 1.57474C87.5564 1.47125 87.2682 1.41951 86.9577 1.41951C86.2184 1.41951 85.6492 1.63388 85.25 2.06261C84.8508 2.49135 84.6512 3.41535 84.6512 4.83462V10.7113H88.5988V12.7071H84.6512V26.6558C84.6512 28.2229 84.873 29.1839 85.3165 29.5387C85.7749 29.8935 86.7802 30.1227 88.3327 30.2262V31.3128H75.7137V30.2262Z" fill="#B9B9B9"/>
<path d="M99.5101 10.4008V25.8131C99.5101 26.7297 99.621 27.4024 99.8427 27.8312C100.227 28.5851 100.989 28.9621 102.127 28.9621C102.851 28.9621 103.561 28.733 104.256 28.2747C104.655 28.0233 105.158 27.602 105.764 27.0106V14.1264C105.764 13.1802 105.572 12.5223 105.188 12.1527C104.818 11.7683 104.064 11.554 102.925 11.5096V10.4008H111.974V26.7445C111.974 27.6907 112.151 28.3486 112.506 28.7182C112.861 29.073 113.556 29.2948 114.591 29.3835V30.4257C111.782 30.6919 110.007 30.8914 109.268 31.0245C108.544 31.1428 107.376 31.4532 105.764 31.9559V28.9621C104.685 29.8935 103.79 30.5514 103.081 30.9358C101.839 31.6159 100.545 31.9559 99.1996 31.9559C97.7359 31.9559 96.3683 31.4902 95.0968 30.5588C93.8401 29.6274 93.2117 27.9716 93.2117 25.5914V14.1264C93.2117 13.1654 93.0564 12.5371 92.746 12.2414C92.4355 11.9457 91.8367 11.7018 90.9496 11.5096V10.4008H99.5101Z" fill="#B9B9B9"/>
<path d="M116.653 24.4382H117.917C118.361 26.6115 119.189 28.149 120.401 29.0508C121.614 29.9379 122.856 30.3814 124.127 30.3814C125.295 30.3814 126.153 30.1227 126.7 29.6052C127.247 29.073 127.52 28.3782 127.52 27.5207C127.52 26.7076 127.224 26.0127 126.633 25.4361C126.308 25.1257 125.783 24.793 125.058 24.4382L121.688 22.7972C119.913 21.9249 118.642 20.9788 117.873 19.9587C117.089 18.9386 116.698 17.7337 116.698 16.344C116.698 14.5847 117.311 13.0693 118.538 11.7979C119.765 10.5117 121.481 9.86857 123.683 9.86857C124.644 9.86857 125.665 10.0312 126.744 10.3564C127.823 10.6669 128.496 10.8221 128.762 10.8221C129.132 10.8221 129.39 10.7482 129.538 10.6004C129.701 10.4378 129.834 10.216 129.938 9.9351H130.935V16.4992H129.782C129.354 14.9617 128.651 13.7272 127.675 12.7958C126.7 11.8644 125.561 11.3987 124.26 11.3987C123.255 11.3987 122.501 11.6796 121.998 12.2414C121.51 12.8032 121.266 13.4093 121.266 14.0598C121.266 14.5921 121.488 15.1243 121.931 15.6565C122.36 16.2035 123.173 16.7653 124.371 17.3419L126.855 18.5394C128.392 19.2786 129.516 19.9956 130.226 20.6905C131.409 21.8732 132 23.3294 132 25.0591C132 26.7445 131.386 28.319 130.159 29.7826C128.947 31.2315 127.121 31.9559 124.681 31.9559C124.075 31.9559 123.462 31.8894 122.841 31.7563C122.235 31.638 121.481 31.4237 120.579 31.1132L119.802 30.8471C119.522 30.7436 119.344 30.6845 119.27 30.6697C119.211 30.6549 119.13 30.6475 119.026 30.6475C118.775 30.6475 118.553 30.751 118.361 30.958C118.183 31.1502 117.976 31.4828 117.74 31.9559H116.653V24.4382Z" fill="#B9B9B9"/>
</svg>
