<svg width="56" height="56" viewBox="0 0 56 56" fill="none" xmlns="http://www.w3.org/2000/svg">
<rect x="0.5" y="0.5" width="55" height="55" rx="11.5" stroke="#D0D0D0"/>
<path d="M14.6666 32H32C33.2425 32 33.8637 32 34.3538 32.2029C35.0072 32.4736 35.5264 32.9928 35.797 33.6461C36 34.1363 36 34.7575 36 36C36 37.2425 36 37.8637 35.797 38.3539C35.5264 39.0072 35.0072 39.5264 34.3538 39.7971C33.8637 40 33.2425 40 32 40H14.6666" stroke="#151515" stroke-width="2" stroke-linecap="round" stroke-linejoin="round"/>
<path d="M14.6666 16H32C33.2425 16 33.8637 16 34.3538 16.203C35.0072 16.4736 35.5264 16.9928 35.797 17.6462C36 18.1362 36 18.7575 36 20C36 21.2425 36 21.8638 35.797 22.3538C35.5264 23.0072 35.0072 23.5264 34.3538 23.797C33.8637 24 33.2425 24 32 24H14.6666" stroke="#151515" stroke-width="2" stroke-linecap="round" stroke-linejoin="round"/>
<path d="M41.3333 24H24C22.7575 24 22.1362 24 21.6462 24.203C20.9928 24.4736 20.4736 24.9928 20.203 25.6461C20 26.1363 20 26.7575 20 28C20 29.2425 20 29.8637 20.203 30.3539C20.4736 31.0072 20.9928 31.5264 21.6462 31.7971C22.1362 32 22.7575 32 24 32H41.3333" stroke="#151515" stroke-width="2" stroke-linecap="round" stroke-linejoin="round"/>
<path d="M40 32C38.5272 32 37.3334 30.2092 37.3334 28C37.3334 25.7908 38.5272 24 40 24" stroke="#151515" stroke-width="2" stroke-linecap="round"/>
<path d="M16 16C17.4728 16 18.6667 17.7909 18.6667 20C18.6667 22.2091 17.4728 24 16 24" stroke="#151515" stroke-width="1.5" stroke-linecap="round"/>
<path d="M16 32C17.4728 32 18.6667 33.7908 18.6667 36C18.6667 38.2092 17.4728 40 16 40" stroke="#151515" stroke-width="1.5" stroke-linecap="round"/>
</svg>
