<svg width="137" height="32" viewBox="0 0 137 32" fill="none" xmlns="http://www.w3.org/2000/svg">
<path fill-rule="evenodd" clip-rule="evenodd" d="M0.310303 22.4546V32.0003L23.2301 9.54616V0.000488281L0.310303 22.4546Z" fill="#B9B9B9"/>
<path fill-rule="evenodd" clip-rule="evenodd" d="M13.3914 22.4546V32.0003L36.3112 9.54616V0.000488281L13.3914 22.4546Z" fill="#B9B9B9"/>
<path d="M55.6861 26.0001C56.6397 26.0001 57.6106 25.9091 58.5989 25.727C59.5872 25.545 60.6058 25.2719 61.6548 24.9078V18.692L62.0709 18.3279L63.6184 18.1978V16.8844H55.8421V18.1978L57.8187 18.3279L58.2348 18.692V24.1276C57.9054 24.1536 57.615 24.1731 57.3635 24.1861C57.1121 24.1991 56.9171 24.2056 56.7784 24.2056C54.7064 24.2056 53.0875 23.5359 51.9214 22.1965C50.7554 20.8571 50.1724 18.9997 50.1724 16.6244C50.1724 14.3097 50.7424 12.4913 51.8824 11.1693C53.0224 9.84721 54.5894 9.18618 56.5833 9.18618C56.9821 9.18618 57.3635 9.22086 57.7277 9.29021C58.0918 9.35956 58.4472 9.46793 58.794 9.6153L59.1971 10.0964L59.7042 12.9183H61.6548V8.39295C60.6665 8.09819 59.7021 7.87713 58.7615 7.72975C57.8208 7.58237 56.9084 7.50869 56.0242 7.50869C53.094 7.50869 50.7424 8.33876 48.9696 9.99892C47.1967 11.6591 46.3103 13.8676 46.3103 16.6244C46.3103 19.4072 47.1772 21.6655 48.9111 23.3993C50.6449 25.1332 52.9032 26.0001 55.6861 26.0001ZM70.9361 25.8831C73.0167 25.8831 74.6855 25.2762 75.9425 24.0625C77.1996 22.8489 77.8281 21.245 77.8281 19.2511C77.8281 17.1445 77.2256 15.4735 76.0206 14.2382C74.8155 13.0028 73.1901 12.3851 71.1441 12.3851C69.0635 12.3851 67.3947 13.0071 66.1377 14.2512C64.8806 15.4952 64.2521 17.1445 64.2521 19.1991C64.2521 21.2017 64.8654 22.8163 66.0921 24.043C67.3188 25.2697 68.9335 25.8831 70.9361 25.8831ZM71.0141 24.4787C70.0518 24.4787 69.2997 24.0062 68.7579 23.0612C68.2161 22.1163 67.9452 20.7943 67.9452 19.0951C67.9452 17.4219 68.2183 16.1215 68.7644 15.1939C69.3106 14.2663 70.0691 13.8025 71.0401 13.8025C72.0197 13.8025 72.7848 14.275 73.3353 15.2199C73.8858 16.1649 74.161 17.4826 74.161 19.1731C74.161 20.8723 73.8879 22.1813 73.3418 23.1003C72.7956 24.0192 72.0197 24.4787 71.0141 24.4787ZM83.5853 25.675C84.6343 25.675 85.5294 25.6252 86.2706 25.5255C87.0118 25.4258 87.6252 25.2719 88.1106 25.0638C89.4804 24.4483 90.5228 23.5792 91.2381 22.4566C91.9533 21.3339 92.3109 20.001 92.3109 18.4579C92.3109 16.6807 91.8211 15.2286 90.8414 14.1016C89.8618 12.9746 88.6048 12.4111 87.0703 12.4111C86.4895 12.4111 85.8827 12.5087 85.2498 12.7037C84.6169 12.8988 83.9364 13.2 83.2082 13.6075V6.00024H81.9338L77.9807 7.24861V8.28892H79.9052V25.623L82.8571 25.675H83.5853ZM84.0534 24.2576C83.828 24.2576 83.6547 24.2554 83.5333 24.2511C83.4119 24.2468 83.3036 24.2403 83.2082 24.2316V14.6998C83.555 14.6304 83.8649 14.5784 84.138 14.5437C84.4111 14.5091 84.6603 14.4917 84.8857 14.4917C86.1254 14.4917 87.079 14.8927 87.7465 15.6946C88.4141 16.4965 88.7478 17.6473 88.7478 19.1471C88.7478 20.8983 88.3685 22.1878 87.61 23.0157C86.8514 23.8436 85.6659 24.2576 84.0534 24.2576ZM99.9016 25.8831C101.982 25.8831 103.651 25.2762 104.908 24.0625C106.165 22.8489 106.794 21.245 106.794 19.2511C106.794 17.1445 106.191 15.4735 104.986 14.2382C103.781 13.0028 102.156 12.3851 100.11 12.3851C98.0291 12.3851 96.3603 13.0071 95.1032 14.2512C93.8462 15.4952 93.2177 17.1445 93.2177 19.1991C93.2177 21.2017 93.831 22.8163 95.0577 24.043C96.2844 25.2697 97.899 25.8831 99.9016 25.8831ZM99.9797 24.4787C99.0174 24.4787 98.2653 24.0062 97.7235 23.0612C97.1817 22.1163 96.9108 20.7943 96.9108 19.0951C96.9108 17.4219 97.1838 16.1215 97.73 15.1939C98.2762 14.2663 99.0347 13.8025 100.006 13.8025C100.985 13.8025 101.75 14.275 102.301 15.2199C102.851 16.1649 103.127 17.4826 103.127 19.1731C103.127 20.8723 102.853 22.1813 102.307 23.1003C101.761 24.0192 100.985 24.4787 99.9797 24.4787ZM114.111 25.675V24.4787L112.941 24.3746L112.577 23.9715V15.1809C113.097 15.0336 113.567 14.9209 113.988 14.8428C114.408 14.7648 114.779 14.7258 115.1 14.7258C115.932 14.7258 116.539 14.9577 116.92 15.4215C117.302 15.8853 117.492 16.6114 117.492 17.5996V23.9715L117.128 24.3746L115.984 24.4787V25.675H122.499V24.4787L121.094 24.3746L120.743 23.9715V16.8324C120.743 15.3413 120.444 14.2317 119.846 13.5034C119.248 12.7752 118.342 12.4111 117.128 12.4111C116.582 12.4111 115.941 12.5412 115.204 12.8012C114.467 13.0613 113.591 13.4731 112.577 14.0366V12.4631H111.29L107.453 13.7115V14.7778H109.274V23.9715L108.897 24.3746L107.531 24.4787V25.675H114.111ZM126.488 25.9091C127.164 25.9091 127.87 25.7704 128.607 25.493C129.344 25.2155 130.163 24.7691 131.065 24.1536L131.416 25.675H136.162V24.5047L134.745 24.3746L134.394 23.9975V17.1055C134.394 15.363 134.021 14.1406 133.275 13.4384C132.53 12.7362 131.243 12.3851 129.413 12.3851C127.784 12.3851 126.409 12.6929 125.291 13.3084C124.173 13.9239 123.614 14.6478 123.614 15.48C123.614 15.8181 123.711 16.0652 123.906 16.2212C124.101 16.3773 124.411 16.4553 124.836 16.4553H127.294V13.9586C127.536 13.9066 127.762 13.8676 127.97 13.8415C128.178 13.8155 128.377 13.8025 128.568 13.8025C129.444 13.8025 130.085 14.0236 130.493 14.4657C130.9 14.9079 131.104 15.6101 131.104 16.5723V17.3656C127.61 18.1545 125.387 18.887 124.433 19.5632C123.479 20.2394 123.002 21.2017 123.002 22.4501C123.002 23.4644 123.328 24.2944 123.978 24.9403C124.628 25.5862 125.465 25.9091 126.488 25.9091ZM128.49 23.8675C127.883 23.8675 127.402 23.6876 127.047 23.3278C126.691 22.9681 126.514 22.4804 126.514 21.8649C126.514 21.076 126.834 20.4518 127.476 19.9923C128.117 19.5329 129.314 19.1081 131.065 18.718V23.0612C130.545 23.33 130.07 23.5316 129.641 23.6659C129.212 23.8003 128.828 23.8675 128.49 23.8675Z" fill="#B9B9B9"/>
</svg>
