<svg width="140" height="32" viewBox="0 0 140 32" fill="none" xmlns="http://www.w3.org/2000/svg">
<path d="M6.25109 8.95022L8.49205 10.0905C8.90455 10.2738 9.35342 10.3564 9.80284 10.3317C10.2523 10.3069 10.6898 10.1755 11.0804 9.94793L13.1981 8.54544C13.5625 8.27628 13.8591 7.92309 14.0636 7.51483C14.2681 7.10657 14.3747 6.6548 14.3746 6.19654L14.2402 3.6253C14.1911 3.17074 14.0378 2.7342 13.7926 2.35096C13.5473 1.96773 13.217 1.64846 12.8283 1.41893L10.5873 0.250184C10.1757 0.0646664 9.72682 -0.0195971 9.27717 0.00417689C8.82752 0.0279509 8.38964 0.159078 7.99904 0.387012L5.88139 1.78951C5.51763 2.05935 5.22149 2.41265 5.01711 2.8208C4.81268 3.22889 4.70567 3.68037 4.70483 4.1384L4.83929 6.70965C4.88282 7.17042 5.03358 7.61397 5.27908 8.00359C5.52457 8.39327 5.8578 8.71778 6.25109 8.95022Z" fill="#B9B9B9"/>
<path d="M19.77 12.2799L17.5291 11.1111C17.1176 10.9278 16.6696 10.8453 16.2211 10.87C15.7726 10.8948 15.336 11.0262 14.9464 11.2536L12.8063 12.6561C12.4438 12.9272 12.1487 13.2808 11.9444 13.6887C11.7401 14.0965 11.6323 14.5473 11.6298 15.005L11.7643 17.5763C11.8133 18.0309 11.9666 18.4674 12.2118 18.8507C12.4571 19.2339 12.7873 19.5532 13.176 19.7827L15.417 20.9229C15.8277 21.1084 16.2757 21.1927 16.7245 21.1689C17.1732 21.1451 17.6101 21.0139 17.9997 20.7861L20.123 19.3836C20.4856 19.1113 20.7807 18.7567 20.9849 18.3479C21.1892 17.9392 21.2969 17.4875 21.2995 17.029L21.165 14.4634C21.1137 14.0147 20.961 13.5841 20.719 13.2053C20.477 12.8265 20.1522 12.5098 19.77 12.2799Z" fill="#B9B9B9"/>
<path d="M26.6845 23.1231L24.4435 21.9829C24.0318 21.7973 23.583 21.7131 23.1334 21.7368C22.6837 21.7606 22.2458 21.8917 21.8552 22.1197L19.7376 23.5222C19.3744 23.7926 19.0788 24.1461 18.8745 24.5541C18.6701 24.9621 18.5628 25.4132 18.561 25.8711L18.6956 28.4424C18.7492 28.8896 18.9035 29.3183 19.1464 29.695C19.3892 30.0717 19.7143 30.3864 20.0961 30.6145L22.3371 31.7548C22.7496 31.9381 23.1984 32.0207 23.6478 31.9959C24.0973 31.9712 24.5348 31.8398 24.9254 31.6122L27.0487 30.2097C27.4114 29.9393 27.7064 29.5857 27.9099 29.1776C28.1133 28.7695 28.2194 28.3184 28.2196 27.8608L28.1019 25.3352C28.0536 24.8789 27.9 24.4408 27.6537 24.0563C27.4074 23.6719 27.0753 23.3522 26.6845 23.1231Z" fill="#B9B9B9"/>
<path d="M10.1728 16.7372L10.0664 14.7361C10.069 14.2784 10.1767 13.8276 10.381 13.4198C10.5853 13.012 10.8804 12.6584 11.2428 12.3873L15.3717 9.65655C15.7612 9.42908 16.1978 9.29767 16.6463 9.27293C17.0948 9.24819 17.5428 9.33079 17.9543 9.51402L19.7133 10.4262C20.1251 10.6117 20.5738 10.696 21.0235 10.6722C21.4732 10.6485 21.911 10.5173 22.3016 10.2894L24.4192 8.88121C24.7826 8.6111 25.0784 8.25775 25.2828 7.84968C25.4872 7.44165 25.5944 6.99042 25.5956 6.5324L25.4612 3.96695C25.413 3.51139 25.2601 3.07372 25.0148 2.68947C24.7695 2.30517 24.4388 1.98506 24.0494 1.75496L21.8086 0.58626C21.3961 0.402973 20.9473 0.320365 20.4978 0.345108C20.0484 0.36985 19.6109 0.501258 19.2204 0.728785L17.0579 2.10843C16.6952 2.37888 16.4002 2.73246 16.1967 3.14054C15.9933 3.54861 15.8872 3.99968 15.8871 4.45724L15.9879 6.45829C15.9877 6.91591 15.8816 7.36697 15.6781 7.77505C15.4747 8.18313 15.1797 8.5367 14.817 8.8071L10.6882 11.5379C10.2976 11.7658 9.85983 11.897 9.4102 11.9208C8.96051 11.9445 8.51172 11.8602 8.10001 11.6747L6.34653 10.7682C5.93482 10.5827 5.48603 10.4985 5.03635 10.5222C4.58671 10.546 4.1489 10.6771 3.75832 10.9051L1.64069 12.3075C1.27694 12.5773 0.980867 12.9306 0.776444 13.3388C0.57202 13.7469 0.465074 14.1983 0.464233 14.6563L0.598685 17.2275C0.646415 17.6832 0.799187 18.121 1.04445 18.5054C1.28977 18.8898 1.62069 19.2098 2.01044 19.4395L4.25131 20.5797C4.66374 20.763 5.11259 20.8456 5.562 20.8209C6.0114 20.7961 6.44894 20.6647 6.83952 20.4371L8.95715 19.0347C9.32107 18.774 9.62028 18.4307 9.83131 18.0319C10.0423 17.6332 10.1592 17.1899 10.1728 16.7372Z" fill="#B9B9B9"/>
<path d="M32.3513 14.8111C32.3013 14.356 32.1477 13.9191 31.9026 13.5351C31.6575 13.151 31.3277 12.8305 30.9395 12.5991L28.6986 11.4589C28.2861 11.276 27.8372 11.1937 27.3879 11.2184C26.9386 11.2432 26.5011 11.3743 26.1104 11.6015L23.9927 13.0039C23.6297 13.2744 23.3341 13.6278 23.1297 14.0357C22.9254 14.4437 22.818 14.8948 22.8163 15.3527L22.9228 17.3595C22.921 17.8173 22.8137 18.2684 22.6093 18.6764C22.405 19.0844 22.1094 19.4378 21.7463 19.7083L17.6231 22.4334C17.2325 22.6609 16.795 22.7923 16.3456 22.817C15.8962 22.8418 15.4473 22.7592 15.0348 22.5759L13.2758 21.6637C12.8643 21.4804 12.4163 21.3978 11.9678 21.4226C11.5193 21.4474 11.0828 21.5787 10.6931 21.8062L8.55311 23.203C8.19071 23.4741 7.89558 23.8276 7.69127 24.2354C7.48702 24.6432 7.37929 25.094 7.37671 25.5518L7.5111 28.1229C7.56018 28.5775 7.71346 29.014 7.95866 29.3972C8.20393 29.7805 8.53418 30.0997 8.92291 30.3292L11.1638 31.4979C11.5745 31.6834 12.0224 31.7677 12.4711 31.7439C12.9199 31.7201 13.3568 31.5889 13.7464 31.3611L15.8696 29.9586C16.2317 29.6872 16.5266 29.3336 16.7308 28.9259C16.9351 28.5181 17.043 28.0675 17.0461 27.6099L16.9396 25.6031C16.9409 25.1451 17.048 24.6939 17.2524 24.2858C17.4568 23.8778 17.7526 23.5244 18.116 23.2542L22.2393 20.5235C22.6298 20.2956 23.0677 20.1644 23.5173 20.1406C23.967 20.1169 24.4158 20.2011 24.8275 20.3866L26.5809 21.2932C26.9926 21.4787 27.4415 21.5629 27.8911 21.5392C28.3408 21.5154 28.7786 21.3843 29.1692 21.1563L31.2924 19.7539C31.6548 19.4831 31.9496 19.1295 32.1529 18.7215C32.3564 18.3135 32.4626 17.8625 32.4632 17.4051L32.3513 14.8111Z" fill="#B9B9B9"/>
<path d="M40.4644 7.16665H45.8453L48.3691 17.3809L50.8929 7.16665H56.5119L51.3929 23.5475H45.3215L40.4644 7.16665Z" fill="#B9B9B9"/>
<path d="M61.7946 23.738C60.4612 23.738 59.4216 23.3094 58.6755 22.4523C57.9295 21.5951 57.5565 20.4285 57.5565 18.9523V11.619H62.6041V18.738C62.6041 19.1031 62.6993 19.3888 62.8898 19.5951C63.0961 19.7856 63.358 19.8809 63.6755 19.8809C63.993 19.8809 64.3184 19.7856 64.6517 19.5951L64.9136 22.9046C64.5644 23.1745 64.1041 23.3808 63.5327 23.5237C62.9771 23.6665 62.3977 23.738 61.7946 23.738ZM60.0803 9.8333C59.3343 9.8333 58.6994 9.60314 58.1755 9.14283C57.6676 8.66664 57.4136 8.08728 57.4136 7.40475C57.4136 6.72221 57.6835 6.15079 58.2232 5.69047C58.7628 5.23016 59.3819 5 60.0803 5C60.8104 5 61.4374 5.23809 61.9612 5.71428C62.5009 6.19047 62.7708 6.75396 62.7708 7.40475C62.7708 8.10315 62.5009 8.68252 61.9612 9.14283C61.4216 9.60314 60.7946 9.8333 60.0803 9.8333Z" fill="#B9B9B9"/>
<path d="M66.3001 11.7857H71.3239V14.2142C71.689 13.2777 72.181 12.5873 72.8001 12.1428C73.435 11.6825 74.1731 11.4523 75.0143 11.4523L75.7048 15.3333C74.1969 15.3333 73.0858 15.4999 72.3715 15.8333C71.6731 16.1507 71.3239 16.6587 71.3239 17.3571V23.5475H66.3001V11.7857Z" fill="#B9B9B9"/>
<path d="M83.1878 23.738C81.8545 23.738 80.664 23.4761 79.6164 22.9523C78.5847 22.4285 77.7752 21.7062 77.1879 20.7856C76.6165 19.8491 76.3307 18.7777 76.3307 17.5713C76.3307 16.365 76.6244 15.3015 77.2117 14.3809C77.799 13.4444 78.6085 12.7222 79.6402 12.2142C80.6879 11.7063 81.8783 11.4523 83.2116 11.4523C84.5608 11.4523 85.7513 11.7142 86.7831 12.238C87.8307 12.746 88.6402 13.4603 89.2116 14.3809C89.783 15.3015 90.0687 16.365 90.0687 17.5713C90.0687 18.7936 89.7751 19.8729 89.1878 20.8094C88.6164 21.73 87.8069 22.4523 86.7592 22.9761C85.7275 23.484 84.537 23.738 83.1878 23.738ZM83.2355 20.1666C83.8862 20.1666 84.418 19.9285 84.8307 19.4523C85.2593 18.9602 85.4735 18.3332 85.4735 17.5713C85.4735 16.8094 85.2593 16.1904 84.8307 15.7142C84.418 15.2222 83.8862 14.9761 83.2355 14.9761C82.5847 14.9761 82.045 15.2222 81.6164 15.7142C81.2037 16.1904 80.9974 16.8094 80.9974 17.5713C80.9974 18.3332 81.2037 18.9602 81.6164 19.4523C82.045 19.9285 82.5847 20.1666 83.2355 20.1666Z" fill="#B9B9B9"/>
<path d="M98.5914 28.9998C97.7184 28.9998 96.885 28.9125 96.0914 28.7379L96.4724 25.2142C97.0914 25.3094 97.6628 25.357 98.1866 25.357C99.1707 25.357 99.9168 25.0634 100.425 24.4761C100.933 23.9046 101.234 22.9364 101.329 21.5713C100.393 22.8888 98.9644 23.5475 97.0438 23.5475C95.9962 23.5475 95.0279 23.2777 94.139 22.738C93.266 22.1983 92.5676 21.4681 92.0438 20.5475C91.5359 19.6269 91.2819 18.619 91.2819 17.5237C91.2819 16.4126 91.5359 15.3968 92.0438 14.4761C92.5517 13.5396 93.2422 12.8015 94.1152 12.2619C95.0041 11.7222 95.9724 11.4523 97.02 11.4523C97.9882 11.4523 98.8295 11.7063 99.5438 12.2142C100.274 12.7063 100.75 13.373 100.972 14.2142V11.4523H105.996V20.5237C105.996 23.3015 105.361 25.4046 104.091 26.8332C102.837 28.2776 101.004 28.9998 98.5914 28.9998ZM98.5914 19.9761C99.2263 19.9761 99.7739 19.7539 100.234 19.3094C100.695 18.8491 100.941 18.3094 100.972 17.6904V17.4999C100.941 16.8967 100.687 16.365 100.21 15.9047C99.7501 15.4444 99.2104 15.2142 98.5914 15.2142C97.9406 15.2142 97.385 15.4523 96.9247 15.9285C96.4644 16.3888 96.2343 16.9444 96.2343 17.5952C96.2343 18.2459 96.4644 18.8094 96.9247 19.2856C97.385 19.7459 97.9406 19.9761 98.5914 19.9761Z" fill="#B9B9B9"/>
<path d="M113.67 23.738C112.638 23.738 111.67 23.4681 110.765 22.9285C109.877 22.3729 109.162 21.6269 108.623 20.6904C108.083 19.738 107.813 18.6824 107.813 17.5237C107.813 16.3809 108.083 15.3491 108.623 14.4285C109.162 13.492 109.884 12.7619 110.789 12.238C111.694 11.7142 112.654 11.4523 113.67 11.4523C114.496 11.4523 115.257 11.6825 115.956 12.1428C116.67 12.6031 117.21 13.2936 117.575 14.2142V11.4523H122.575V23.5475H117.575V21.3332C116.781 22.9364 115.48 23.738 113.67 23.738ZM115.218 19.9761C115.853 19.9761 116.392 19.7539 116.837 19.3094C117.297 18.8491 117.543 18.3094 117.575 17.6904V17.4999C117.543 16.865 117.289 16.3253 116.813 15.8809C116.353 15.4364 115.821 15.2142 115.218 15.2142C114.551 15.2142 113.98 15.4523 113.503 15.9285C113.043 16.3888 112.813 16.9444 112.813 17.5952C112.813 18.2618 113.051 18.8253 113.527 19.2856C114.003 19.7459 114.567 19.9761 115.218 19.9761Z" fill="#B9B9B9"/>
<path d="M124.986 11.7857H129.772V14.2142C130.693 12.373 132.153 11.4523 134.153 11.4523C135.677 11.4523 136.867 12 137.724 13.0952C138.597 14.1745 139.034 15.6745 139.034 17.5952V23.5475H134.034V17.0952C134.034 16.4126 133.883 15.8888 133.582 15.5237C133.296 15.1587 132.891 14.9761 132.367 14.9761C131.986 14.9761 131.613 15.1031 131.248 15.3571C130.883 15.5952 130.582 15.9444 130.344 16.4047C130.121 16.865 130.01 17.3888 130.01 17.9761V23.5475H124.986V11.7857Z" fill="#B9B9B9"/>
</svg>
