<svg width="148" height="32" viewBox="0 0 148 32" fill="none" xmlns="http://www.w3.org/2000/svg">
<path d="M35.3023 26.0563C35.0217 25.616 34.6549 25.2352 34.2233 24.9362C33.7917 24.6373 33.304 24.4262 32.7887 24.3151C30.8171 23.8631 29.1071 22.66 28.0325 20.9689C26.9579 19.2777 26.606 17.236 27.0536 15.2898C27.2257 14.5376 27.1686 13.7521 26.8893 13.0318C26.61 12.3115 26.1211 11.6886 25.4839 11.2414C24.8467 10.7942 24.0897 10.5426 23.3079 10.5181C22.5261 10.4936 21.7545 10.6974 21.0898 11.1039C20.4251 11.5104 19.8971 12.1015 19.5721 12.8028C19.247 13.5042 19.1394 14.2846 19.2628 15.0461C19.3862 15.8075 19.7351 16.5161 20.2656 17.0827C20.7961 17.6493 21.4846 18.0488 22.2447 18.2309C23.2279 18.4495 24.1577 18.8573 24.9808 19.431C25.8039 20.0045 26.5041 20.7327 27.0411 21.5735C27.5782 22.4144 27.9417 23.3515 28.1107 24.3311C28.2797 25.3108 28.251 26.3137 28.0261 27.2823C27.8929 27.9068 27.9166 28.5538 28.0952 29.1671C28.2739 29.7804 28.6019 30.3413 29.0509 30.8011C29.4998 31.2607 30.0559 31.6052 30.6708 31.8044C31.2857 32.0037 31.9406 32.0516 32.5786 31.9441C33.2167 31.8366 33.8183 31.5769 34.3312 31.1877C34.844 30.7984 35.2525 30.2915 35.5211 29.7109C35.7897 29.1303 35.9101 28.4938 35.872 27.8568C35.8339 27.2198 35.6383 26.6017 35.3023 26.0563Z" fill="#B9B9B9"/>
<path d="M10.8972 21.7133C11.5915 22.0868 12.3831 22.2473 13.1706 22.1742C13.9581 22.1011 14.7054 21.7977 15.3167 21.3029C15.9281 20.8082 16.3755 20.1446 16.6017 19.3974C16.8278 18.6502 16.8223 17.8534 16.5859 17.1093C16.2863 16.1605 16.1795 15.1627 16.2718 14.1731C16.3641 13.1835 16.6536 12.2216 17.1237 11.3426C17.5938 10.4636 18.2353 9.68462 19.0114 9.05044C19.7875 8.41626 20.6829 7.93939 21.6463 7.64705C22.3935 7.41632 23.0547 6.97285 23.5468 6.3725C24.0389 5.77214 24.34 5.04169 24.4119 4.27306C24.484 3.50442 24.3238 2.73194 23.9515 2.05291C23.5792 1.37383 23.0115 0.818471 22.3199 0.456744C21.6282 0.0950181 20.8435 -0.0569746 20.0644 0.0199803C19.2853 0.0968873 18.5467 0.399244 17.9416 0.889053C17.3364 1.37881 16.8917 2.03413 16.6634 2.77248C16.4351 3.51084 16.4335 4.29927 16.6587 5.03853C17.2498 6.94707 17.0499 9.0088 16.1028 10.7724C15.1556 12.536 13.5384 13.8578 11.605 14.4486C10.8417 14.6669 10.1625 15.1059 9.65518 15.709C9.14789 16.312 8.83589 17.0514 8.75963 17.8312C8.68342 18.611 8.84639 19.3955 9.2275 20.0829C9.60862 20.7704 10.1903 21.3293 10.8972 21.6872V21.7133Z" fill="#B9B9B9"/>
<path d="M21.1119 21.0735C20.5841 21.0918 20.0655 21.2137 19.5861 21.432C19.1068 21.6504 18.6765 21.9608 18.3204 22.3452C16.9388 23.802 15.0283 24.6603 13.0066 24.7324C10.9849 24.8045 9.01641 24.0845 7.53162 22.7299C7.14798 22.3751 6.69663 22.0989 6.20378 21.9175C5.71097 21.7362 5.18648 21.6532 4.66081 21.6735C4.01378 21.7036 3.38401 21.8894 2.82656 22.2146C2.26906 22.5398 1.80085 22.9946 1.4627 23.5392C1.12451 24.0839 0.926736 24.7019 0.88654 25.3392C0.846392 25.9766 0.965037 26.6139 1.23222 27.1957C1.4994 27.7774 1.9069 28.2859 2.41925 28.6766C2.9316 29.0674 3.53313 29.3285 4.17141 29.4374C4.80969 29.5462 5.46532 29.4994 6.081 29.3009C6.69673 29.1025 7.25379 28.7586 7.70358 28.299C8.38785 27.5687 9.2115 26.9786 10.1274 26.5626C11.0434 26.1466 12.0336 25.9127 13.0413 25.8746C14.049 25.8364 15.0545 25.9946 16.0001 26.3401C16.9457 26.6857 17.8129 27.2118 18.5519 27.8882C19.0331 28.3168 19.6134 28.6226 20.2422 28.7789C20.871 28.9353 21.529 28.9374 22.1588 28.785C22.7885 28.6326 23.3708 28.3304 23.8547 27.9049C24.3386 27.4793 24.7094 26.9433 24.9346 26.3438C25.1598 25.7443 25.2325 25.0996 25.1466 24.466C25.0605 23.8324 24.8183 23.2292 24.4411 22.7091C24.0639 22.1891 23.5633 21.7682 22.9829 21.483C22.4025 21.1979 21.7601 21.0573 21.1119 21.0735Z" fill="#B9B9B9"/>
<path d="M58.0708 27C59.7282 27 60.7612 26.3983 61.1698 25.195C61.306 24.741 61.4082 24.162 61.4763 23.4582L60.5909 23.4242C60.4547 24.9907 60.0574 25.7853 59.399 25.808C58.8995 25.7626 58.6497 25.195 58.6497 24.1053V16.9877C58.6497 14.1498 57.3329 12.4016 54.6993 11.7432C54.0182 11.5843 53.2804 11.5048 52.4857 11.5048C49.3981 11.5048 47.4569 12.1746 46.6623 13.5141C46.4579 13.8546 46.3558 14.2179 46.3558 14.6038C46.3558 15.4893 46.7758 16.0455 47.6158 16.2725C47.8202 16.3407 48.0358 16.3747 48.2629 16.3747C49.2391 16.3747 49.8975 15.8979 50.2381 14.9444C50.2835 14.8082 50.3516 14.5811 50.4424 14.2633C50.6922 13.3551 51.01 12.7876 51.396 12.5605C51.6457 12.447 51.9295 12.3902 52.2473 12.3902C53.3144 12.3902 53.9615 13.0373 54.1885 14.3314C54.2793 14.8082 54.3247 15.3758 54.3247 16.0342V18.2478C48.4899 18.3613 45.5612 19.9051 45.5385 22.8793C45.5385 24.8999 46.4239 26.194 48.1948 26.7616C48.7169 26.9205 49.2959 27 49.9316 27C51.8614 27 53.2804 26.2734 54.1885 24.8204C54.3701 24.5253 54.5177 24.2188 54.6312 23.9009C55.108 25.8534 56.2545 26.8864 58.0708 27ZM51.7025 25.5356C50.5673 25.4902 49.9883 24.4799 49.9656 22.5047C49.9656 21.0062 50.5786 20.03 51.8046 19.5759C52.463 19.3716 53.3031 19.2467 54.3247 19.2013V22.5047C53.8933 24.0939 53.2009 25.0702 52.2473 25.4334C52.043 25.5015 51.8614 25.5356 51.7025 25.5356Z" fill="#B9B9B9"/>
<path d="M71.148 25.774H68.6279V18.418C68.7869 16.0342 69.3658 14.5811 70.3648 14.059C70.5237 13.9908 70.6713 13.9568 70.8075 13.9568C71.0572 13.9568 71.3297 14.2179 71.6248 14.7401C72.0335 15.4666 72.4762 15.9206 72.953 16.1023C73.18 16.1704 73.4297 16.2044 73.7022 16.2044C74.6103 16.2044 75.2574 15.7731 75.6433 14.9103C75.7795 14.6152 75.8477 14.3087 75.8477 13.9908C75.8477 12.8557 75.2914 12.1405 74.1789 11.8454C73.9065 11.7772 73.6227 11.7432 73.3276 11.7432C71.9199 11.7432 70.6826 12.2994 69.6155 13.4119C69.1388 13.9568 68.7755 14.5471 68.5258 15.1828L68.2874 12.0156H62.3277V12.9011H64.3029V24.0031C64.3029 25.0021 63.9056 25.5696 63.111 25.7059C62.8839 25.7513 62.6229 25.774 62.3277 25.774V26.6594H71.9654C71.9654 26.1372 71.8178 25.8534 71.5226 25.808C71.4091 25.7853 71.2842 25.774 71.148 25.774Z" fill="#B9B9B9"/>
<path d="M81.7052 19.2694C81.7052 16.0909 82.0911 14.059 82.863 13.1735C83.3398 12.6513 84.0096 12.3902 84.8723 12.3902C86.3253 12.3902 87.2562 13.1281 87.6648 14.6038C87.9373 15.5574 88.0735 17.0672 88.0735 19.1332C88.0735 22.4479 87.6421 24.5366 86.7794 25.3994C86.2799 25.8761 85.6329 26.1145 84.8382 26.1145C83.4306 26.1145 82.5225 25.388 82.1138 23.935C81.8414 22.9587 81.7052 21.4035 81.7052 19.2694ZM85.0426 11.5048C82.25 11.5048 80.1046 12.4584 78.6061 14.3654C77.5618 15.7277 77.0396 17.3169 77.0396 19.1332C77.0396 21.6987 77.925 23.7307 79.6959 25.2291C81.1035 26.4097 82.7836 27 84.7361 27C87.4151 27 89.5152 26.0351 91.0363 24.1053C92.1715 22.6522 92.7391 20.9722 92.7391 19.0651C92.7391 16.5223 91.8423 14.5357 90.0487 13.1054C88.6638 12.0383 86.9951 11.5048 85.0426 11.5048Z" fill="#B9B9B9"/>
<path d="M101.355 25.774H100.742L100.776 16.9877C100.912 15.1941 101.503 14.0249 102.547 13.48C102.842 13.3211 103.137 13.2416 103.432 13.2416C104.272 13.2416 104.874 13.7638 105.237 14.8082C105.396 15.3076 105.476 15.8639 105.476 16.4769V24.0031C105.476 24.9339 105.26 25.4902 104.829 25.6718C104.624 25.7399 104.341 25.774 103.977 25.774V26.6594H111.197C111.197 26.1372 111.049 25.8534 110.754 25.808C110.618 25.7853 110.482 25.774 110.346 25.774H109.767V17.0558V16.8174C109.926 14.933 110.539 13.7638 111.606 13.3097C111.833 13.2189 112.06 13.1735 112.287 13.1735C113.263 13.1735 113.933 13.7525 114.296 14.9103C114.432 15.3871 114.5 15.9093 114.5 16.4769V24.0031C114.5 24.9339 114.285 25.4902 113.853 25.6718C113.649 25.7399 113.365 25.774 113.002 25.774V26.6594H120.767C120.767 26.1372 120.619 25.8534 120.324 25.808C120.188 25.7853 120.051 25.774 119.915 25.774H118.791V16.8855C118.791 14.6606 118.053 13.0827 116.578 12.1519C115.897 11.7205 115.159 11.5048 114.364 11.5048C112.162 11.5275 110.516 12.5832 109.426 14.6719C108.881 13.06 107.916 12.0497 106.531 11.641C106.168 11.5502 105.805 11.5048 105.442 11.5048C103.262 11.5275 101.673 12.5265 100.674 14.5017L100.504 12.0156H94.4418V12.9011H96.417V24.0031C96.417 25.0475 95.9289 25.6264 94.9527 25.7399C94.7937 25.7626 94.6235 25.774 94.4418 25.774V26.6594H102.172C102.172 26.1372 102.025 25.8534 101.73 25.808C101.616 25.7853 101.491 25.774 101.355 25.774Z" fill="#B9B9B9"/>
<path d="M129.689 25.774H128.429V12.0156H122.129V12.9011H124.104V24.0031C124.104 25.0021 123.707 25.5696 122.912 25.7059C122.685 25.7513 122.424 25.774 122.129 25.774V26.6594H130.506C130.506 26.1372 130.359 25.8534 130.064 25.808C129.95 25.7853 129.825 25.774 129.689 25.774ZM128.736 7.55439C128.736 6.55544 128.293 5.81757 127.407 5.3408C127.021 5.11376 126.613 5.00024 126.181 5.00024C125.205 5.00024 124.467 5.44296 123.968 6.3284C123.763 6.71436 123.661 7.12302 123.661 7.55439C123.661 8.55335 124.104 9.27986 124.989 9.73393C125.375 9.93826 125.773 10.0404 126.181 10.0404C127.18 10.0404 127.918 9.62041 128.395 8.78038C128.622 8.39442 128.736 7.98576 128.736 7.55439Z" fill="#B9B9B9"/>
<path d="M131.358 26.6594H136.5V25.774H134.116L138.203 20.6657L141.608 25.774H139.735V26.6594H147.602C147.602 26.1372 147.421 25.8534 147.057 25.808C146.966 25.7853 146.864 25.774 146.751 25.774H146.07L141.098 18.2818L144.469 13.8887C144.923 13.2757 145.502 12.9351 146.206 12.867C146.546 12.8216 146.751 12.6854 146.819 12.4584C146.842 12.3221 146.853 12.1746 146.853 12.0156H141.813V12.9011H144.026L140.519 17.4304L137.522 12.9011H139.395V12.0156H131.494V12.9011H133.061L137.692 19.8484L133.674 24.7864C133.197 25.354 132.618 25.6945 131.937 25.808C131.619 25.8307 131.437 25.967 131.392 26.2167C131.369 26.3529 131.358 26.5005 131.358 26.6594Z" fill="#B9B9B9"/>
</svg>
