<svg width="174" height="32" viewBox="0 0 174 32" fill="none" xmlns="http://www.w3.org/2000/svg">
<path d="M6.50114 10.7793L10.4961 8.47537L8.26616 4.61517H29.2378L18.7554 22.7775L16.5254 18.9106L12.5306 21.2213L18.7554 32.0003L37.2276 0.000488281H0.276367L6.50114 10.7793Z" fill="#B9B9B9"/>
<path d="M58.7708 26.0001L67.1993 6.00024H63.1708L57.228 20.5144L51.2566 6.00024H47.228L55.6565 26.0001H58.7708Z" fill="#B9B9B9"/>
<path d="M71.9649 6.00024V26.0001H86.8505V22.4573H75.7935V17.6573H85.1363V14.1145H75.7935V9.54308H86.7077V6.00024H71.9649Z" fill="#B9B9B9"/>
<path d="M92.3442 6.00024V26.0001H96.1728V18.943H100.83L105.03 26.0001H109.287L104.716 18.2859C107.03 17.2573 108.516 15.0573 108.516 12.4573C108.516 10.6288 107.858 9.08594 106.516 7.85737C105.201 6.62881 103.573 6.00024 101.601 6.00024H92.3442ZM101.601 9.54308C103.287 9.54308 104.516 10.7716 104.516 12.4573C104.516 14.143 103.287 15.4002 101.601 15.4002H96.1728V9.54308H101.601Z" fill="#B9B9B9"/>
<path d="M119.525 9.54308V26.0001H123.382V9.54308H130.01V6.00024H112.896V9.54308H119.525Z" fill="#B9B9B9"/>
<path d="M135.223 6.00024V26.0001H150.109V22.4573H139.052V17.6573H148.395V14.1145H139.052V9.54308H149.966V6.00024H135.223Z" fill="#B9B9B9"/>
<path d="M161.631 15.8002L154.203 26.0001H158.803L163.917 18.943L169.031 26.0001H173.603L166.203 15.8002L173.317 6.00024H168.746L163.917 12.6573L159.088 6.00024H154.488L161.631 15.8002Z" fill="#B9B9B9"/>
</svg>
