<svg width="56" height="56" viewBox="0 0 56 56" fill="none" xmlns="http://www.w3.org/2000/svg">
<rect x="0.5" y="0.5" width="55" height="55" rx="11.5" stroke="#D0D0D0"/>
<path d="M22.6666 40C22.6666 38.1144 22.6666 37.1716 23.2524 36.5858C23.8382 36 24.781 36 26.6666 36H29.3333C31.2189 36 32.1617 36 32.7475 36.5858C33.3333 37.1716 33.3333 38.1144 33.3333 40V40C33.3333 40.31 33.3333 40.465 33.2992 40.5922C33.2068 40.9372 32.9372 41.2068 32.5921 41.2993C32.4649 41.3333 32.31 41.3333 32 41.3333H24C23.69 41.3333 23.535 41.3333 23.4078 41.2993C23.0627 41.2068 22.7932 40.9372 22.7007 40.5922C22.6666 40.465 22.6666 40.31 22.6666 40V40Z" stroke="#151515" stroke-width="1.5" stroke-linecap="round" stroke-linejoin="round"/>
<path d="M28 29.334L28 36.0007" stroke="#151515" stroke-width="1.5" stroke-linecap="round" stroke-linejoin="round"/>
<path d="M20 41.334H36" stroke="#151515" stroke-width="1.5" stroke-linecap="round" stroke-linejoin="round"/>
<path d="M29.3821 15.8223L30.79 18.6613C30.9819 19.0565 31.4939 19.4356 31.9258 19.5081L34.4775 19.9356C36.1094 20.2098 36.4933 21.4035 35.3175 22.581L33.3337 24.5812C32.9977 24.9199 32.8137 25.5732 32.9177 26.041L33.4857 28.517C33.9336 30.4768 32.9017 31.235 31.1819 30.2107L28.7902 28.7831C28.3582 28.5251 27.6463 28.5251 27.2064 28.7831L24.8146 30.2107C23.1028 31.235 22.0629 30.4688 22.5109 28.517L23.0788 26.041C23.1828 25.5732 22.9988 24.9199 22.6629 24.5812L20.6791 22.581C19.5112 21.4035 19.8872 20.2098 21.519 19.9356L24.0707 19.5081C24.4946 19.4356 25.0066 19.0565 25.1986 18.6613L26.6064 15.8223C27.3743 14.2819 28.6222 14.2819 29.3821 15.8223Z" stroke="#151515" stroke-width="1.5" stroke-linecap="round" stroke-linejoin="round"/>
</svg>
