<svg width="153" height="32" viewBox="0 0 153 32" fill="none" xmlns="http://www.w3.org/2000/svg">
<path d="M40.438 26.6437H44.4196V16.948C44.4196 15.874 44.7134 15.0129 45.3011 14.3644C45.8887 13.716 46.6587 13.3918 47.611 13.3918C48.5837 13.3918 49.3536 13.716 49.921 14.3644C50.5086 14.9926 50.8024 15.8538 50.8024 16.948V26.6437H54.7841V16.948C54.7841 15.874 55.0779 15.0129 55.6655 14.3644C56.2531 13.716 57.0231 13.3918 57.9755 13.3918C58.9481 13.3918 59.7181 13.716 60.2854 14.3644C60.8731 14.9926 61.1669 15.8538 61.1669 16.948V26.6437H65.1485V16.0057C65.1485 14.7697 64.875 13.6856 64.3279 12.7536C63.8011 11.8012 63.0817 11.0616 62.1699 10.5348C61.2581 10.0079 60.2145 9.74452 59.0393 9.74452C57.9451 9.74452 56.9522 9.96741 56.0606 10.4132C55.1893 10.859 54.47 11.5276 53.9027 12.4192C53.4163 11.6087 52.7173 10.9603 51.8054 10.474C50.9139 9.98767 49.9109 9.74452 48.7964 9.74452C47.763 9.74452 46.841 9.94715 46.0305 10.3524C45.22 10.7577 44.602 11.3655 44.1765 12.1761V10.1092H40.438V26.6437Z" fill="#B9B9B9"/>
<path d="M73.5321 27.0085C75.68 27.0085 77.4023 26.2993 78.6992 24.8809V26.6437H82.468V15.641C82.468 14.486 82.1742 13.4628 81.5866 12.5712C80.999 11.6796 80.1885 10.9907 79.1551 10.5044C78.1419 9.9978 76.9565 9.74452 75.5989 9.74452C73.9374 9.74452 72.4582 10.1396 71.1614 10.9299C69.8645 11.7201 68.973 12.7637 68.4867 14.0605L71.7389 15.641C72.0428 14.8913 72.519 14.2935 73.1674 13.8477C73.8158 13.3817 74.5757 13.1487 75.447 13.1487C76.3588 13.1487 77.0883 13.3918 77.6354 13.8781C78.2027 14.3442 78.4864 14.9318 78.4864 15.641V16.1881L73.5625 16.9784C71.6173 17.3026 70.1786 17.9206 69.2465 18.8324C68.3144 19.7442 67.8484 20.8891 67.8484 22.267C67.8484 23.7259 68.3651 24.8809 69.3985 25.7319C70.4319 26.5829 71.8098 27.0085 73.5321 27.0085ZM71.982 22.115C71.982 20.96 72.7621 20.2305 74.3224 19.9266L78.4864 19.2275V19.8962C78.4864 21.0309 78.0913 21.9934 77.301 22.7837C76.531 23.5739 75.5179 23.969 74.2616 23.969C73.5929 23.969 73.0458 23.8069 72.6203 23.4827C72.1948 23.1383 71.982 22.6823 71.982 22.115Z" fill="#B9B9B9"/>
<path d="M86.1481 26.6437H90.1298V17.4343C90.1298 16.178 90.4742 15.2054 91.1632 14.5164C91.8724 13.8072 92.7842 13.4526 93.8987 13.4526H95.3272V9.92688H94.3546C93.3414 9.92688 92.4499 10.1092 91.6799 10.474C90.9099 10.8387 90.3121 11.4973 89.8866 12.4496V10.1092H86.1481V26.6437Z" fill="#B9B9B9"/>
<path d="M105.499 26.8261C106.168 26.8261 106.827 26.7754 107.475 26.6741V23.2396C107.09 23.3004 106.735 23.3308 106.411 23.3308C105.439 23.3308 104.729 23.1079 104.284 22.6621C103.838 22.2163 103.615 21.578 103.615 20.7472V13.6654H107.414V10.1092H103.615V6.34036H99.6332V7.61692C99.6332 8.42743 99.4103 9.04545 98.9645 9.47097C98.5187 9.89649 97.8906 10.1092 97.0801 10.1092H96.7761V13.6654H99.6332V20.96C99.6332 22.8039 100.14 24.2426 101.153 25.276C102.186 26.3094 103.635 26.8261 105.499 26.8261Z" fill="#B9B9B9"/>
<path d="M110.517 8.2552H114.499V4H110.517V8.2552ZM110.517 26.6437H114.499V10.1092H110.517V26.6437Z" fill="#B9B9B9"/>
<path d="M118.175 26.6437H122.157V16.948C122.157 15.874 122.46 15.0129 123.068 14.3644C123.697 13.716 124.507 13.3918 125.5 13.3918C126.493 13.3918 127.293 13.716 127.901 14.3644C128.529 14.9926 128.843 15.8538 128.843 16.948V26.6437H132.825V16.0057C132.825 14.7697 132.562 13.6856 132.035 12.7536C131.508 11.8012 130.768 11.0616 129.816 10.5348C128.884 10.0079 127.81 9.74452 126.594 9.74452C125.561 9.74452 124.629 9.94715 123.798 10.3524C122.987 10.7577 122.359 11.3554 121.913 12.1457V10.1092H118.175V26.6437Z" fill="#B9B9B9"/>
<path d="M144.277 27.0085C145.877 27.0085 147.336 26.6437 148.653 25.9143C149.971 25.1645 151.024 24.1413 151.814 22.8444C152.605 21.5274 153 20.038 153 18.3765C153 16.7149 152.605 15.2358 151.814 13.9389C151.044 12.6421 150.001 11.6188 148.684 10.8691C147.367 10.1194 145.898 9.74452 144.277 9.74452C142.635 9.74452 141.156 10.1194 139.839 10.8691C138.522 11.6188 137.468 12.6421 136.678 13.9389C135.908 15.2358 135.523 16.7149 135.523 18.3765C135.523 20.038 135.908 21.5172 136.678 22.8141C137.468 24.1109 138.522 25.1341 139.839 25.8839C141.176 26.6336 142.656 27.0085 144.277 27.0085ZM144.277 23.3612C143.385 23.3612 142.585 23.1484 141.876 22.7229C141.187 22.2974 140.64 21.7097 140.234 20.96C139.849 20.19 139.657 19.3288 139.657 18.3765C139.657 17.4241 139.849 16.5731 140.234 15.8234C140.64 15.0736 141.187 14.486 141.876 14.0605C142.585 13.6147 143.385 13.3918 144.277 13.3918C145.168 13.3918 145.948 13.6147 146.617 14.0605C147.306 14.486 147.843 15.0736 148.228 15.8234C148.633 16.5731 148.836 17.4241 148.836 18.3765C148.836 19.3288 148.633 20.19 148.228 20.96C147.843 21.7097 147.306 22.2974 146.617 22.7229C145.948 23.1484 145.168 23.3612 144.277 23.3612Z" fill="#B9B9B9"/>
<path d="M26.7504 26.32C26.1882 25.6285 25.7114 24.8569 25.3325 24.0257C24.7339 22.7228 23.9066 21.5661 22.8993 20.6238C21.8919 19.6815 20.7249 18.9726 19.4671 18.539C18.3672 18.1613 17.2162 18.001 16.0664 18.0654C16.9033 18.0123 17.7273 18.3123 18.3734 18.9055C19.0194 19.4987 19.4398 20.341 19.5502 21.2639C19.8528 23.2578 20.6485 25.1191 21.8486 26.6398C23.0487 28.1605 24.6058 29.2806 26.3461 29.8752C28.336 30.5544 30.4684 30.5178 32.4385 29.7707C30.244 29.3732 28.2374 28.1559 26.7504 26.32Z" fill="#B9B9B9"/>
<path d="M12.6392 17.8679C12.8953 19.099 13.3457 20.2718 13.9702 21.3335C13.5142 20.5625 13.3386 19.6326 13.4783 18.7271C13.6179 17.8215 14.0625 17.0061 14.7244 16.4417C16.1302 15.1691 17.1856 13.4944 17.7731 11.6042C18.3605 9.71393 18.457 7.68232 18.0518 5.73563C17.5892 3.50866 16.492 1.50024 14.9185 0.000244141C15.7019 2.29203 15.7469 4.80789 15.0461 7.13155C14.7778 8.00879 14.4048 8.84342 13.9369 9.61384C13.2185 10.8241 12.7291 12.1798 12.4976 13.6006C12.2662 15.0215 12.2973 16.4787 12.5893 17.8862L12.6392 17.8679Z" fill="#B9B9B9"/>
<path d="M17.5436 22.1548C17.1717 22.983 16.534 23.6232 15.7584 23.9468C14.9828 24.2705 14.1266 24.2537 13.3616 23.8999C11.6756 23.1922 9.84707 23.0235 8.08044 23.4128C6.31376 23.802 4.67855 24.7339 3.35752 26.1042C1.85127 27.6737 0.828994 29.7385 0.438232 32.0009C1.83985 30.0952 3.77982 28.7819 5.93776 28.278C6.74847 28.0921 7.57668 28.0201 8.40325 28.0637C9.69979 28.1389 10.9966 27.9225 12.2172 27.4272C13.4378 26.9318 14.5574 26.1676 15.51 25.1796C16.3437 24.3125 17.0356 23.2888 17.5545 22.1548H17.5436Z" fill="#B9B9B9"/>
</svg>
